<mxfile host="app.diagrams.net" modified="2022-05-15T15:40:18.420Z" agent="5.0 (Windows NT 10.0; Win64; x64) AppleWebKit/537.36 (KHTML, like Gecko) Chrome/101.0.4951.54 Safari/537.36" etag="wXrP_VdvPZPNL9My1rcH" version="18.0.4" type="github">
  <diagram name="Page-1" id="03018318-947c-dd8e-b7a3-06fadd420f32">
    <mxGraphModel dx="8020" dy="5347" grid="1" gridSize="10" guides="1" tooltips="1" connect="1" arrows="1" fold="1" page="1" pageScale="1" pageWidth="1100" pageHeight="850" background="none" math="0" shadow="0">
      <root>
        <mxCell id="0" />
        <mxCell id="1" parent="0" />
        <mxCell id="TvpQG-iox65vNh2mYCZo-8" value="" style="whiteSpace=wrap;html=1;rounded=0;shadow=0;labelBackgroundColor=none;strokeColor=#000000;strokeWidth=1;fillColor=none;fontFamily=Verdana;fontSize=12;fontColor=#000000;align=center;comic=1;" vertex="1" parent="1">
          <mxGeometry x="920" y="-1520" width="1920" height="2970" as="geometry" />
        </mxCell>
        <mxCell id="677b7b8949515195-1" value="" style="whiteSpace=wrap;html=1;rounded=0;shadow=0;labelBackgroundColor=none;strokeColor=#000000;strokeWidth=1;fillColor=none;fontFamily=Verdana;fontSize=12;fontColor=#000000;align=center;comic=1;" parent="1" vertex="1">
          <mxGeometry x="-1060" y="-1530" width="1920" height="1080" as="geometry" />
        </mxCell>
        <mxCell id="677b7b8949515195-2" value="LOGO" style="whiteSpace=wrap;html=1;rounded=0;shadow=0;labelBackgroundColor=none;strokeWidth=1;fontFamily=Verdana;fontSize=28;align=center;comic=1;" parent="1" vertex="1">
          <mxGeometry x="-1030" y="-1500" width="230" height="50" as="geometry" />
        </mxCell>
        <mxCell id="677b7b8949515195-16" value="" style="verticalLabelPosition=bottom;shadow=0;dashed=0;align=center;html=1;verticalAlign=top;strokeWidth=1;shape=mxgraph.mockup.graphics.simpleIcon;strokeColor=#999999;rounded=0;labelBackgroundColor=none;fontFamily=Verdana;fontSize=14;fontColor=#000000;comic=1;" parent="1" vertex="1">
          <mxGeometry x="280" y="-1322" width="240" height="600" as="geometry" />
        </mxCell>
        <mxCell id="TvpQG-iox65vNh2mYCZo-2" value="&lt;font style=&quot;font-size: 72px;&quot;&gt;landing page&lt;/font&gt;" style="text;html=1;align=center;verticalAlign=middle;resizable=0;points=[];autosize=1;strokeColor=none;fillColor=none;" vertex="1" parent="1">
          <mxGeometry x="-1045" y="-1620" width="430" height="40" as="geometry" />
        </mxCell>
        <mxCell id="TvpQG-iox65vNh2mYCZo-3" value="" style="verticalLabelPosition=bottom;shadow=0;dashed=0;align=center;html=1;verticalAlign=top;strokeWidth=1;shape=mxgraph.mockup.graphics.simpleIcon;strokeColor=#999999;rounded=0;labelBackgroundColor=none;fontFamily=Verdana;fontSize=14;fontColor=#000000;comic=1;" vertex="1" parent="1">
          <mxGeometry y="-1322" width="240" height="600" as="geometry" />
        </mxCell>
        <mxCell id="TvpQG-iox65vNh2mYCZo-4" value="" style="verticalLabelPosition=bottom;shadow=0;dashed=0;align=center;html=1;verticalAlign=top;strokeWidth=1;shape=mxgraph.mockup.graphics.simpleIcon;strokeColor=#999999;rounded=0;labelBackgroundColor=none;fontFamily=Verdana;fontSize=14;fontColor=#000000;comic=1;" vertex="1" parent="1">
          <mxGeometry x="-290" y="-1322" width="240" height="600" as="geometry" />
        </mxCell>
        <mxCell id="TvpQG-iox65vNh2mYCZo-5" value="" style="verticalLabelPosition=bottom;shadow=0;dashed=0;align=center;html=1;verticalAlign=top;strokeWidth=1;shape=mxgraph.mockup.graphics.simpleIcon;strokeColor=#999999;rounded=0;labelBackgroundColor=none;fontFamily=Verdana;fontSize=14;fontColor=#000000;comic=1;" vertex="1" parent="1">
          <mxGeometry x="-580" y="-1322" width="450" height="600" as="geometry" />
        </mxCell>
        <mxCell id="TvpQG-iox65vNh2mYCZo-6" value="&lt;span style=&quot;font-size: 72px;&quot;&gt;--交通&lt;/span&gt;" style="text;html=1;align=center;verticalAlign=middle;resizable=0;points=[];autosize=1;strokeColor=none;fillColor=none;fontColor=#666666;" vertex="1" parent="1">
          <mxGeometry x="-580" y="-870" width="210" height="40" as="geometry" />
        </mxCell>
        <mxCell id="TvpQG-iox65vNh2mYCZo-7" value="" style="shape=image;html=1;verticalAlign=top;verticalLabelPosition=bottom;labelBackgroundColor=#ffffff;imageAspect=0;aspect=fixed;image=https://cdn0.iconfinder.com/data/icons/user-interface-1-32/32/hamburger-menu-128.png;fontSize=72;fontColor=#666666;strokeWidth=20;imageBorder=#FFFF00;" vertex="1" parent="1">
          <mxGeometry x="-1030" y="-990" width="64" height="64" as="geometry" />
        </mxCell>
        <mxCell id="TvpQG-iox65vNh2mYCZo-9" value="&lt;span style=&quot;font-size: 72px;&quot;&gt;交通&lt;/span&gt;" style="text;html=1;align=center;verticalAlign=middle;resizable=0;points=[];autosize=1;strokeColor=none;fillColor=none;" vertex="1" parent="1">
          <mxGeometry x="1075" y="-1610" width="160" height="40" as="geometry" />
        </mxCell>
        <mxCell id="TvpQG-iox65vNh2mYCZo-18" value="" style="group" vertex="1" connectable="0" parent="1">
          <mxGeometry x="1670" y="-1520" width="560" height="60" as="geometry" />
        </mxCell>
        <mxCell id="TvpQG-iox65vNh2mYCZo-14" value="Active" style="fillColor=none;strokeColor=none;fontSize=30;fontColor=#0085FC;" vertex="1" parent="TvpQG-iox65vNh2mYCZo-18">
          <mxGeometry width="144.5161290322581" height="60" as="geometry" />
        </mxCell>
        <mxCell id="TvpQG-iox65vNh2mYCZo-15" value="Link" style="fillColor=none;strokeColor=none;fontSize=30;fontColor=#0085FC;" vertex="1" parent="TvpQG-iox65vNh2mYCZo-18">
          <mxGeometry x="144.5161290322581" width="108.38709677419357" height="60" as="geometry" />
        </mxCell>
        <mxCell id="TvpQG-iox65vNh2mYCZo-16" value="Link" style="fillColor=none;strokeColor=none;fontSize=30;fontColor=#0085FC;" vertex="1" parent="TvpQG-iox65vNh2mYCZo-18">
          <mxGeometry x="252.90322580645167" width="108.38709677419357" height="60" as="geometry" />
        </mxCell>
        <mxCell id="TvpQG-iox65vNh2mYCZo-17" value="Disabled" style="fillColor=none;strokeColor=none;fontSize=30;fontColor=#7D868C;" vertex="1" parent="TvpQG-iox65vNh2mYCZo-18">
          <mxGeometry x="361.2903225806452" width="198.70967741935488" height="60" as="geometry" />
        </mxCell>
        <mxCell id="TvpQG-iox65vNh2mYCZo-30" value="" style="group" vertex="1" connectable="0" parent="1">
          <mxGeometry x="-250" y="40" width="560" height="60" as="geometry" />
        </mxCell>
        <mxCell id="TvpQG-iox65vNh2mYCZo-31" value="Active" style="fillColor=none;strokeColor=none;fontSize=30;fontColor=#0085FC;" vertex="1" parent="TvpQG-iox65vNh2mYCZo-30">
          <mxGeometry width="144.5161290322581" height="60" as="geometry" />
        </mxCell>
        <mxCell id="TvpQG-iox65vNh2mYCZo-32" value="Link" style="fillColor=none;strokeColor=none;fontSize=30;fontColor=#0085FC;" vertex="1" parent="TvpQG-iox65vNh2mYCZo-30">
          <mxGeometry x="144.5161290322581" width="108.38709677419357" height="60" as="geometry" />
        </mxCell>
        <mxCell id="TvpQG-iox65vNh2mYCZo-33" value="Link" style="fillColor=none;strokeColor=none;fontSize=30;fontColor=#0085FC;" vertex="1" parent="TvpQG-iox65vNh2mYCZo-30">
          <mxGeometry x="252.90322580645167" width="108.38709677419357" height="60" as="geometry" />
        </mxCell>
        <mxCell id="TvpQG-iox65vNh2mYCZo-34" value="Disabled" style="fillColor=none;strokeColor=none;fontSize=72;fontColor=#7D868C;" vertex="1" parent="TvpQG-iox65vNh2mYCZo-30">
          <mxGeometry x="361.2903225806452" width="198.70967741935488" height="60" as="geometry" />
        </mxCell>
        <mxCell id="TvpQG-iox65vNh2mYCZo-44" value="" style="strokeWidth=1;shadow=0;dashed=0;align=center;html=1;shape=mxgraph.mockup.containers.marginRect2;rectMarginTop=32;strokeColor=#666666;gradientColor=none;rounded=1;glass=0;sketch=0;fontSize=30;fontColor=#666666;" vertex="1" parent="1">
          <mxGeometry x="1030" y="-1360" width="1690" height="2810" as="geometry" />
        </mxCell>
        <mxCell id="TvpQG-iox65vNh2mYCZo-45" value="船班" style="strokeColor=inherit;fillColor=inherit;gradientColor=inherit;strokeWidth=1;shadow=0;dashed=0;align=center;html=1;shape=mxgraph.mockup.containers.rrect;rSize=0;fontSize=17;fontColor=#666666;gradientColor=none;rounded=1;glass=0;sketch=0;" vertex="1" parent="TvpQG-iox65vNh2mYCZo-44">
          <mxGeometry width="60" height="25" relative="1" as="geometry">
            <mxPoint x="10" as="offset" />
          </mxGeometry>
        </mxCell>
        <mxCell id="TvpQG-iox65vNh2mYCZo-46" value="Tab 2" style="strokeWidth=1;shadow=0;dashed=0;align=center;html=1;shape=mxgraph.mockup.containers.rrect;rSize=0;fontSize=17;fontColor=#ffffff;strokeColor=#008cff;fillColor=#008cff;rounded=1;glass=0;sketch=0;" vertex="1" parent="TvpQG-iox65vNh2mYCZo-44">
          <mxGeometry width="60" height="25" relative="1" as="geometry">
            <mxPoint x="75" as="offset" />
          </mxGeometry>
        </mxCell>
        <mxCell id="TvpQG-iox65vNh2mYCZo-47" value="Tab 3" style="strokeColor=inherit;fillColor=inherit;gradientColor=inherit;strokeWidth=1;shadow=0;dashed=0;align=center;html=1;shape=mxgraph.mockup.containers.rrect;rSize=0;fontSize=17;fontColor=#666666;gradientColor=none;rounded=1;glass=0;sketch=0;" vertex="1" parent="TvpQG-iox65vNh2mYCZo-44">
          <mxGeometry width="60" height="25" relative="1" as="geometry">
            <mxPoint x="140" as="offset" />
          </mxGeometry>
        </mxCell>
        <mxCell id="TvpQG-iox65vNh2mYCZo-48" value="" style="strokeWidth=1;shadow=0;dashed=0;align=center;html=1;shape=mxgraph.mockup.containers.topButton;rSize=5;strokeColor=#008cff;fillColor=#008cff;gradientColor=none;resizeWidth=1;movable=0;deletable=1;rounded=1;glass=0;sketch=0;fontSize=30;fontColor=#666666;" vertex="1" parent="TvpQG-iox65vNh2mYCZo-44">
          <mxGeometry width="1690" height="7" relative="1" as="geometry">
            <mxPoint y="25" as="offset" />
          </mxGeometry>
        </mxCell>
        <mxCell id="TvpQG-iox65vNh2mYCZo-49" value="&lt;table border=&quot;1&quot; width=&quot;100%&quot; height=&quot;100%&quot; cellpadding=&quot;4&quot; style=&quot;width:100%;height:100%;border-collapse:collapse;&quot;&gt;&lt;tr style=&quot;background-color:#A7C942;color:#ffffff;border:1px solid #98bf21;&quot;&gt;&lt;th align=&quot;left&quot;&gt;Title 1&lt;/th&gt;&lt;th align=&quot;left&quot;&gt;Title 2&lt;/th&gt;&lt;th align=&quot;left&quot;&gt;Title 3&lt;/th&gt;&lt;/tr&gt;&lt;tr style=&quot;border:1px solid #98bf21;&quot;&gt;&lt;td&gt;Value 1&lt;/td&gt;&lt;td&gt;Value 2&lt;/td&gt;&lt;td&gt;Value 3&lt;/td&gt;&lt;/tr&gt;&lt;tr style=&quot;background-color:#EAF2D3;border:1px solid #98bf21;&quot;&gt;&lt;td&gt;Value 4&lt;/td&gt;&lt;td&gt;Value 5&lt;/td&gt;&lt;td&gt;Value 6&lt;/td&gt;&lt;/tr&gt;&lt;tr style=&quot;border:1px solid #98bf21;&quot;&gt;&lt;td&gt;Value 7&lt;/td&gt;&lt;td&gt;Value 8&lt;/td&gt;&lt;td&gt;Value 9&lt;/td&gt;&lt;/tr&gt;&lt;tr style=&quot;background-color:#EAF2D3;border:1px solid #98bf21;&quot;&gt;&lt;td&gt;Value 10&lt;/td&gt;&lt;td&gt;Value 11&lt;/td&gt;&lt;td&gt;Value 12&lt;/td&gt;&lt;/tr&gt;&lt;/table&gt;" style="text;html=1;strokeColor=#c0c0c0;fillColor=#ffffff;overflow=fill;rounded=0;shadow=0;glass=0;sketch=0;fontSize=72;fontColor=#666666;" vertex="1" parent="TvpQG-iox65vNh2mYCZo-44">
          <mxGeometry x="50" y="567.9787234042552" width="660" height="488.26241134751774" as="geometry" />
        </mxCell>
        <mxCell id="TvpQG-iox65vNh2mYCZo-50" value="&lt;h1 style=&quot;font-size: 30px;&quot;&gt;Heading&lt;/h1&gt;&lt;p style=&quot;font-size: 30px;&quot;&gt;Lorem ipsum dolor sit amet, consectetur adipisicing elit, sed do eiusmod tempor incididunt ut labore et dolore magna aliqua.&lt;/p&gt;" style="text;html=1;strokeColor=none;fillColor=none;spacing=5;spacingTop=-20;whiteSpace=wrap;overflow=hidden;rounded=0;shadow=0;glass=0;sketch=0;fontSize=30;fontColor=#666666;" vertex="1" parent="TvpQG-iox65vNh2mYCZo-44">
          <mxGeometry x="100" y="109.60992907801416" width="1450" height="182.43078014184397" as="geometry" />
        </mxCell>
        <mxCell id="TvpQG-iox65vNh2mYCZo-52" value="&lt;table border=&quot;1&quot; width=&quot;100%&quot; height=&quot;100%&quot; cellpadding=&quot;4&quot; style=&quot;width:100%;height:100%;border-collapse:collapse;&quot;&gt;&lt;tr style=&quot;background-color:#A7C942;color:#ffffff;border:1px solid #98bf21;&quot;&gt;&lt;th align=&quot;left&quot;&gt;Title 1&lt;/th&gt;&lt;th align=&quot;left&quot;&gt;Title 2&lt;/th&gt;&lt;th align=&quot;left&quot;&gt;Title 3&lt;/th&gt;&lt;/tr&gt;&lt;tr style=&quot;border:1px solid #98bf21;&quot;&gt;&lt;td&gt;Value 1&lt;/td&gt;&lt;td&gt;Value 2&lt;/td&gt;&lt;td&gt;Value 3&lt;/td&gt;&lt;/tr&gt;&lt;tr style=&quot;background-color:#EAF2D3;border:1px solid #98bf21;&quot;&gt;&lt;td&gt;Value 4&lt;/td&gt;&lt;td&gt;Value 5&lt;/td&gt;&lt;td&gt;Value 6&lt;/td&gt;&lt;/tr&gt;&lt;tr style=&quot;border:1px solid #98bf21;&quot;&gt;&lt;td&gt;Value 7&lt;/td&gt;&lt;td&gt;Value 8&lt;/td&gt;&lt;td&gt;Value 9&lt;/td&gt;&lt;/tr&gt;&lt;tr style=&quot;background-color:#EAF2D3;border:1px solid #98bf21;&quot;&gt;&lt;td&gt;Value 10&lt;/td&gt;&lt;td&gt;Value 11&lt;/td&gt;&lt;td&gt;Value 12&lt;/td&gt;&lt;/tr&gt;&lt;/table&gt;" style="text;html=1;strokeColor=#c0c0c0;fillColor=#ffffff;overflow=fill;rounded=0;shadow=0;glass=0;sketch=0;fontSize=30;fontColor=#666666;" vertex="1" parent="TvpQG-iox65vNh2mYCZo-44">
          <mxGeometry x="770" y="567.9787234042552" width="730" height="488.26241134751774" as="geometry" />
        </mxCell>
        <mxCell id="TvpQG-iox65vNh2mYCZo-54" value="" style="verticalLabelPosition=bottom;shadow=0;dashed=0;align=center;html=1;verticalAlign=top;strokeWidth=1;shape=mxgraph.mockup.graphics.simpleIcon;strokeColor=#b85450;rounded=0;labelBackgroundColor=none;fontFamily=Verdana;fontSize=14;comic=1;fillColor=#f8cecc;" vertex="1" parent="TvpQG-iox65vNh2mYCZo-44">
          <mxGeometry x="260" y="298.93617021276594" width="1050" height="209.25531914893617" as="geometry" />
        </mxCell>
        <mxCell id="TvpQG-iox65vNh2mYCZo-55" value="&lt;table border=&quot;1&quot; width=&quot;100%&quot; height=&quot;100%&quot; cellpadding=&quot;4&quot; style=&quot;width:100%;height:100%;border-collapse:collapse;&quot;&gt;&lt;tr style=&quot;background-color:#A7C942;color:#ffffff;border:1px solid #98bf21;&quot;&gt;&lt;th align=&quot;left&quot;&gt;Title 1&lt;/th&gt;&lt;th align=&quot;left&quot;&gt;Title 2&lt;/th&gt;&lt;th align=&quot;left&quot;&gt;Title 3&lt;/th&gt;&lt;/tr&gt;&lt;tr style=&quot;border:1px solid #98bf21;&quot;&gt;&lt;td&gt;Value 1&lt;/td&gt;&lt;td&gt;Value 2&lt;/td&gt;&lt;td&gt;Value 3&lt;/td&gt;&lt;/tr&gt;&lt;tr style=&quot;background-color:#EAF2D3;border:1px solid #98bf21;&quot;&gt;&lt;td&gt;Value 4&lt;/td&gt;&lt;td&gt;Value 5&lt;/td&gt;&lt;td&gt;Value 6&lt;/td&gt;&lt;/tr&gt;&lt;tr style=&quot;border:1px solid #98bf21;&quot;&gt;&lt;td&gt;Value 7&lt;/td&gt;&lt;td&gt;Value 8&lt;/td&gt;&lt;td&gt;Value 9&lt;/td&gt;&lt;/tr&gt;&lt;tr style=&quot;background-color:#EAF2D3;border:1px solid #98bf21;&quot;&gt;&lt;td&gt;Value 10&lt;/td&gt;&lt;td&gt;Value 11&lt;/td&gt;&lt;td&gt;Value 12&lt;/td&gt;&lt;/tr&gt;&lt;/table&gt;" style="text;html=1;strokeColor=#c0c0c0;fillColor=#ffffff;overflow=fill;rounded=0;shadow=0;glass=0;sketch=0;fontSize=72;fontColor=#666666;" vertex="1" parent="TvpQG-iox65vNh2mYCZo-44">
          <mxGeometry x="50" y="1096.0992907801417" width="660" height="488.26241134751774" as="geometry" />
        </mxCell>
        <mxCell id="TvpQG-iox65vNh2mYCZo-56" value="&lt;table border=&quot;1&quot; width=&quot;100%&quot; height=&quot;100%&quot; cellpadding=&quot;4&quot; style=&quot;width:100%;height:100%;border-collapse:collapse;&quot;&gt;&lt;tr style=&quot;background-color:#A7C942;color:#ffffff;border:1px solid #98bf21;&quot;&gt;&lt;th align=&quot;left&quot;&gt;Title 1&lt;/th&gt;&lt;th align=&quot;left&quot;&gt;Title 2&lt;/th&gt;&lt;th align=&quot;left&quot;&gt;Title 3&lt;/th&gt;&lt;/tr&gt;&lt;tr style=&quot;border:1px solid #98bf21;&quot;&gt;&lt;td&gt;Value 1&lt;/td&gt;&lt;td&gt;Value 2&lt;/td&gt;&lt;td&gt;Value 3&lt;/td&gt;&lt;/tr&gt;&lt;tr style=&quot;background-color:#EAF2D3;border:1px solid #98bf21;&quot;&gt;&lt;td&gt;Value 4&lt;/td&gt;&lt;td&gt;Value 5&lt;/td&gt;&lt;td&gt;Value 6&lt;/td&gt;&lt;/tr&gt;&lt;tr style=&quot;border:1px solid #98bf21;&quot;&gt;&lt;td&gt;Value 7&lt;/td&gt;&lt;td&gt;Value 8&lt;/td&gt;&lt;td&gt;Value 9&lt;/td&gt;&lt;/tr&gt;&lt;tr style=&quot;background-color:#EAF2D3;border:1px solid #98bf21;&quot;&gt;&lt;td&gt;Value 10&lt;/td&gt;&lt;td&gt;Value 11&lt;/td&gt;&lt;td&gt;Value 12&lt;/td&gt;&lt;/tr&gt;&lt;/table&gt;" style="text;html=1;strokeColor=#c0c0c0;fillColor=#ffffff;overflow=fill;rounded=0;shadow=0;glass=0;sketch=0;fontSize=30;fontColor=#666666;" vertex="1" parent="TvpQG-iox65vNh2mYCZo-44">
          <mxGeometry x="770" y="1106.063829787234" width="730" height="488.26241134751774" as="geometry" />
        </mxCell>
        <mxCell id="TvpQG-iox65vNh2mYCZo-38" value="" style="rounded=1;whiteSpace=wrap;html=1;shadow=0;glass=0;sketch=0;fontSize=30;fontColor=#666666;strokeColor=#141414;strokeWidth=5;" vertex="1" parent="TvpQG-iox65vNh2mYCZo-44">
          <mxGeometry x="180" y="1726.8156424581005" width="1380" height="109.88826815642457" as="geometry" />
        </mxCell>
        <mxCell id="TvpQG-iox65vNh2mYCZo-39" value="&lt;h1&gt;Heading&lt;/h1&gt;&lt;p&gt;Lorem ipsum dolor sit amet, consectetur adipisicing elit, sed do eiusmod tempor incididunt ut labore et dolore magna aliqua.&lt;/p&gt;" style="text;html=1;strokeColor=none;fillColor=none;spacing=5;spacingTop=-20;whiteSpace=wrap;overflow=hidden;rounded=0;shadow=0;glass=0;sketch=0;fontSize=30;fontColor=#666666;" vertex="1" parent="TvpQG-iox65vNh2mYCZo-44">
          <mxGeometry x="190" y="1930.8938547486032" width="1390" height="659.3296089385475" as="geometry" />
        </mxCell>
        <mxCell id="TvpQG-iox65vNh2mYCZo-40" value="" style="rounded=1;whiteSpace=wrap;html=1;shadow=0;glass=0;sketch=0;fontSize=30;fontColor=#666666;strokeColor=#141414;strokeWidth=5;" vertex="1" parent="TvpQG-iox65vNh2mYCZo-44">
          <mxGeometry x="180" y="2260" width="1380" height="70" as="geometry" />
        </mxCell>
        <mxCell id="TvpQG-iox65vNh2mYCZo-41" value="&lt;h1&gt;Heading&lt;/h1&gt;&lt;p&gt;Lorem ipsum dolor sit amet, consectetur adipisicing elit, sed do eiusmod tempor incididunt ut labore et dolore magna aliqua.&lt;/p&gt;" style="text;html=1;strokeColor=none;fillColor=none;spacing=5;spacingTop=-20;whiteSpace=wrap;overflow=hidden;rounded=0;shadow=0;glass=0;sketch=0;fontSize=30;fontColor=#666666;" vertex="1" parent="TvpQG-iox65vNh2mYCZo-44">
          <mxGeometry x="175" y="2390" width="1390" height="420" as="geometry" />
        </mxCell>
        <mxCell id="TvpQG-iox65vNh2mYCZo-57" value="" style="whiteSpace=wrap;html=1;rounded=0;shadow=0;labelBackgroundColor=none;strokeColor=#000000;strokeWidth=1;fillColor=none;fontFamily=Verdana;fontSize=12;fontColor=#000000;align=center;comic=1;" vertex="1" parent="1">
          <mxGeometry x="2950" y="-1500" width="1920" height="2970" as="geometry" />
        </mxCell>
        <mxCell id="TvpQG-iox65vNh2mYCZo-58" value="&lt;span style=&quot;font-size: 72px;&quot;&gt;美食&lt;/span&gt;" style="text;html=1;align=center;verticalAlign=middle;resizable=0;points=[];autosize=1;strokeColor=none;fillColor=none;" vertex="1" parent="1">
          <mxGeometry x="2980" y="-1610" width="160" height="40" as="geometry" />
        </mxCell>
        <mxCell id="TvpQG-iox65vNh2mYCZo-59" value="" style="verticalLabelPosition=bottom;shadow=0;dashed=0;align=center;html=1;verticalAlign=top;strokeWidth=1;shape=mxgraph.mockup.graphics.simpleIcon;strokeColor=#999999;rounded=0;labelBackgroundColor=none;fontFamily=Verdana;fontSize=14;fontColor=#000000;comic=1;" vertex="1" parent="1">
          <mxGeometry x="2980" y="-1500" width="1850" height="920" as="geometry" />
        </mxCell>
        <mxCell id="TvpQG-iox65vNh2mYCZo-60" value="Link" style="fillColor=none;strokeColor=none;fontSize=30;fontColor=#0085FC;" vertex="1" parent="1">
          <mxGeometry x="3870.0032258064516" y="-1490" width="108.38709677419357" height="60" as="geometry" />
        </mxCell>
        <mxCell id="TvpQG-iox65vNh2mYCZo-61" value="&lt;h1&gt;Heading&lt;/h1&gt;&lt;p&gt;Lorem ipsum dolor sit amet, consectetur adipisicing elit, sed do eiusmod tempor incididunt ut labore et dolore magna aliqua.&lt;/p&gt;" style="text;html=1;strokeColor=none;fillColor=none;spacing=5;spacingTop=-20;whiteSpace=wrap;overflow=hidden;rounded=0;shadow=0;glass=0;sketch=0;fontSize=30;fontColor=#666666;" vertex="1" parent="1">
          <mxGeometry x="3780" y="-1110" width="460" height="100" as="geometry" />
        </mxCell>
        <mxCell id="TvpQG-iox65vNh2mYCZo-72" value="First slide" style="html=1;shadow=0;dashed=0;strokeColor=none;strokeWidth=1;fillColor=#777777;fontColor=#555555;whiteSpace=wrap;align=center;verticalAlign=middle;fontStyle=0;fontSize=40;rounded=1;glass=0;sketch=0;" vertex="1" parent="1">
          <mxGeometry x="3080" y="-350" width="1540" height="480" as="geometry" />
        </mxCell>
        <mxCell id="TvpQG-iox65vNh2mYCZo-73" value="" style="html=1;verticalLabelPosition=bottom;labelBackgroundColor=#ffffff;verticalAlign=top;shadow=0;dashed=0;strokeWidth=4;shape=mxgraph.ios7.misc.more;strokeColor=#a0a0a0;rounded=1;glass=0;sketch=0;fontSize=30;fontColor=#666666;" vertex="1" parent="TvpQG-iox65vNh2mYCZo-72">
          <mxGeometry x="1" y="0.5" width="7" height="14" relative="1" as="geometry">
            <mxPoint x="-50" y="-7" as="offset" />
          </mxGeometry>
        </mxCell>
        <mxCell id="TvpQG-iox65vNh2mYCZo-74" value="" style="flipH=1;html=1;verticalLabelPosition=bottom;labelBackgroundColor=#ffffff;verticalAlign=top;shadow=0;dashed=0;strokeWidth=4;shape=mxgraph.ios7.misc.more;strokeColor=#a0a0a0;rounded=1;glass=0;sketch=0;fontSize=30;fontColor=#666666;" vertex="1" parent="TvpQG-iox65vNh2mYCZo-72">
          <mxGeometry y="0.5" width="7" height="14" relative="1" as="geometry">
            <mxPoint x="43" y="-7" as="offset" />
          </mxGeometry>
        </mxCell>
        <mxCell id="TvpQG-iox65vNh2mYCZo-71" value="&lt;h2 style=&quot;box-sizing: border-box; border-width: 0px; border-style: solid; border-color: rgb(229 231 235/var(--tw-border-opacity)); border-image: initial; --tw-translate-x:0; --tw-translate-y:0; --tw-rotate:0; --tw-skew-x:0; --tw-skew-y:0; --tw-scale-x:1; --tw-scale-y:1; --tw-transform:translateX(var(--tw-translate-x)) translateY(var(--tw-translate-y)) rotate(var(--tw-rotate)) skewX(var(--tw-skew-x)) skewY(var(--tw-skew-y)) scaleX(var(--tw-scale-x)) scaleY(var(--tw-scale-y)); --tw-border-opacity:1; --tw-ring-inset:var(--tw-empty, ); --tw-ring-offset-width:0px; --tw-ring-offset-color:#fff; --tw-ring-color:rgb(59 130 246/0.5); --tw-ring-offset-shadow:0 0 #0000; --tw-ring-shadow:0 0 #0000; --tw-shadow:0 0 #0000; --tw-shadow-colored:0 0 #0000; --tw-blur:var(--tw-empty, ); --tw-brightness:var(--tw-empty, ); --tw-contrast:var(--tw-empty, ); --tw-grayscale:var(--tw-empty, ); --tw-hue-rotate:var(--tw-empty, ); --tw-invert:var(--tw-empty, ); --tw-saturate:var(--tw-empty, ); --tw-sepia:var(--tw-empty, ); --tw-drop-shadow:var(--tw-empty, ); --tw-filter:var(--tw-blur) var(--tw-brightness) var(--tw-contrast) var(--tw-grayscale) var(--tw-hue-rotate) var(--tw-invert) var(--tw-saturate) var(--tw-sepia) var(--tw-drop-shadow); font-size: 1.5em; font-weight: 700; margin: 2em 0px 1em; color: var(--tw-prose-headings); line-height: 1.33333; display: flex; font-family: Inter, -apple-system, system-ui, &amp;quot;Helvetica Neue&amp;quot;, Helvetica, Arial, sans-serif; font-style: normal; font-variant-ligatures: normal; font-variant-caps: normal; letter-spacing: normal; orphans: 2; text-align: start; text-indent: 0px; text-transform: none; widows: 2; word-spacing: 0px; -webkit-text-stroke-width: 0px; background-color: rgb(255, 255, 255); text-decoration-thickness: initial; text-decoration-style: initial; text-decoration-color: initial;&quot; id=&quot;infinite-loop-with-slides-per-group&quot; class=&quot;group flex whitespace-pre-wrap&quot;&gt;&lt;span style=&quot;box-sizing: border-box; border-width: 0px; border-style: solid; border-color: rgb(229 231 235/var(--tw-border-opacity)); border-image: initial; --tw-translate-x:0; --tw-translate-y:0; --tw-rotate:0; --tw-skew-x:0; --tw-skew-y:0; --tw-scale-x:1; --tw-scale-y:1; --tw-transform:translateX(var(--tw-translate-x)) translateY(var(--tw-translate-y)) rotate(var(--tw-rotate)) skewX(var(--tw-skew-x)) skewY(var(--tw-skew-y)) scaleX(var(--tw-scale-x)) scaleY(var(--tw-scale-y)); --tw-border-opacity:1; --tw-ring-inset:var(--tw-empty, ); --tw-ring-offset-width:0px; --tw-ring-offset-color:#fff; --tw-ring-color:rgb(59 130 246/0.5); --tw-ring-offset-shadow:0 0 #0000; --tw-ring-shadow:0 0 #0000; --tw-shadow:0 0 #0000; --tw-shadow-colored:0 0 #0000; --tw-blur:var(--tw-empty, ); --tw-brightness:var(--tw-empty, ); --tw-contrast:var(--tw-empty, ); --tw-grayscale:var(--tw-empty, ); --tw-hue-rotate:var(--tw-empty, ); --tw-invert:var(--tw-empty, ); --tw-saturate:var(--tw-empty, ); --tw-sepia:var(--tw-empty, ); --tw-drop-shadow:var(--tw-empty, ); --tw-filter:var(--tw-blur) var(--tw-brightness) var(--tw-contrast) var(--tw-grayscale) var(--tw-hue-rotate) var(--tw-invert) var(--tw-saturate) var(--tw-sepia) var(--tw-drop-shadow);&quot;&gt;&lt;br class=&quot;Apple-interchange-newline&quot;&gt;Infinite loop with slides per group&lt;/span&gt;&lt;/h2&gt;" style="text;whiteSpace=wrap;html=1;fontSize=30;fontColor=#666666;" vertex="1" parent="TvpQG-iox65vNh2mYCZo-72">
          <mxGeometry x="390" y="75" width="1180" height="330" as="geometry" />
        </mxCell>
        <mxCell id="TvpQG-iox65vNh2mYCZo-75" value="First slide" style="html=1;shadow=0;dashed=0;strokeColor=none;strokeWidth=1;fillColor=#777777;fontColor=#555555;whiteSpace=wrap;align=center;verticalAlign=middle;fontStyle=0;fontSize=40;rounded=1;glass=0;sketch=0;" vertex="1" parent="1">
          <mxGeometry x="3060" y="430" width="1540" height="480" as="geometry" />
        </mxCell>
        <mxCell id="TvpQG-iox65vNh2mYCZo-76" value="" style="html=1;verticalLabelPosition=bottom;labelBackgroundColor=#ffffff;verticalAlign=top;shadow=0;dashed=0;strokeWidth=4;shape=mxgraph.ios7.misc.more;strokeColor=#a0a0a0;rounded=1;glass=0;sketch=0;fontSize=30;fontColor=#666666;" vertex="1" parent="TvpQG-iox65vNh2mYCZo-75">
          <mxGeometry x="1" y="0.5" width="7" height="14" relative="1" as="geometry">
            <mxPoint x="-50" y="-7" as="offset" />
          </mxGeometry>
        </mxCell>
        <mxCell id="TvpQG-iox65vNh2mYCZo-77" value="" style="flipH=1;html=1;verticalLabelPosition=bottom;labelBackgroundColor=#ffffff;verticalAlign=top;shadow=0;dashed=0;strokeWidth=4;shape=mxgraph.ios7.misc.more;strokeColor=#a0a0a0;rounded=1;glass=0;sketch=0;fontSize=30;fontColor=#666666;" vertex="1" parent="TvpQG-iox65vNh2mYCZo-75">
          <mxGeometry y="0.5" width="7" height="14" relative="1" as="geometry">
            <mxPoint x="43" y="-7" as="offset" />
          </mxGeometry>
        </mxCell>
        <mxCell id="TvpQG-iox65vNh2mYCZo-78" value="&lt;h2 style=&quot;box-sizing: border-box; border-width: 0px; border-style: solid; border-color: rgb(229 231 235/var(--tw-border-opacity)); border-image: initial; --tw-translate-x:0; --tw-translate-y:0; --tw-rotate:0; --tw-skew-x:0; --tw-skew-y:0; --tw-scale-x:1; --tw-scale-y:1; --tw-transform:translateX(var(--tw-translate-x)) translateY(var(--tw-translate-y)) rotate(var(--tw-rotate)) skewX(var(--tw-skew-x)) skewY(var(--tw-skew-y)) scaleX(var(--tw-scale-x)) scaleY(var(--tw-scale-y)); --tw-border-opacity:1; --tw-ring-inset:var(--tw-empty, ); --tw-ring-offset-width:0px; --tw-ring-offset-color:#fff; --tw-ring-color:rgb(59 130 246/0.5); --tw-ring-offset-shadow:0 0 #0000; --tw-ring-shadow:0 0 #0000; --tw-shadow:0 0 #0000; --tw-shadow-colored:0 0 #0000; --tw-blur:var(--tw-empty, ); --tw-brightness:var(--tw-empty, ); --tw-contrast:var(--tw-empty, ); --tw-grayscale:var(--tw-empty, ); --tw-hue-rotate:var(--tw-empty, ); --tw-invert:var(--tw-empty, ); --tw-saturate:var(--tw-empty, ); --tw-sepia:var(--tw-empty, ); --tw-drop-shadow:var(--tw-empty, ); --tw-filter:var(--tw-blur) var(--tw-brightness) var(--tw-contrast) var(--tw-grayscale) var(--tw-hue-rotate) var(--tw-invert) var(--tw-saturate) var(--tw-sepia) var(--tw-drop-shadow); font-size: 1.5em; font-weight: 700; margin: 2em 0px 1em; color: var(--tw-prose-headings); line-height: 1.33333; display: flex; font-family: Inter, -apple-system, system-ui, &amp;quot;Helvetica Neue&amp;quot;, Helvetica, Arial, sans-serif; font-style: normal; font-variant-ligatures: normal; font-variant-caps: normal; letter-spacing: normal; orphans: 2; text-align: start; text-indent: 0px; text-transform: none; widows: 2; word-spacing: 0px; -webkit-text-stroke-width: 0px; background-color: rgb(255, 255, 255); text-decoration-thickness: initial; text-decoration-style: initial; text-decoration-color: initial;&quot; id=&quot;infinite-loop-with-slides-per-group&quot; class=&quot;group flex whitespace-pre-wrap&quot;&gt;&lt;span style=&quot;box-sizing: border-box; border-width: 0px; border-style: solid; border-color: rgb(229 231 235/var(--tw-border-opacity)); border-image: initial; --tw-translate-x:0; --tw-translate-y:0; --tw-rotate:0; --tw-skew-x:0; --tw-skew-y:0; --tw-scale-x:1; --tw-scale-y:1; --tw-transform:translateX(var(--tw-translate-x)) translateY(var(--tw-translate-y)) rotate(var(--tw-rotate)) skewX(var(--tw-skew-x)) skewY(var(--tw-skew-y)) scaleX(var(--tw-scale-x)) scaleY(var(--tw-scale-y)); --tw-border-opacity:1; --tw-ring-inset:var(--tw-empty, ); --tw-ring-offset-width:0px; --tw-ring-offset-color:#fff; --tw-ring-color:rgb(59 130 246/0.5); --tw-ring-offset-shadow:0 0 #0000; --tw-ring-shadow:0 0 #0000; --tw-shadow:0 0 #0000; --tw-shadow-colored:0 0 #0000; --tw-blur:var(--tw-empty, ); --tw-brightness:var(--tw-empty, ); --tw-contrast:var(--tw-empty, ); --tw-grayscale:var(--tw-empty, ); --tw-hue-rotate:var(--tw-empty, ); --tw-invert:var(--tw-empty, ); --tw-saturate:var(--tw-empty, ); --tw-sepia:var(--tw-empty, ); --tw-drop-shadow:var(--tw-empty, ); --tw-filter:var(--tw-blur) var(--tw-brightness) var(--tw-contrast) var(--tw-grayscale) var(--tw-hue-rotate) var(--tw-invert) var(--tw-saturate) var(--tw-sepia) var(--tw-drop-shadow);&quot;&gt;&lt;br class=&quot;Apple-interchange-newline&quot;&gt;Infinite loop with slides per group&lt;/span&gt;&lt;/h2&gt;" style="text;whiteSpace=wrap;html=1;fontSize=30;fontColor=#666666;" vertex="1" parent="TvpQG-iox65vNh2mYCZo-75">
          <mxGeometry x="390" y="75" width="1180" height="330" as="geometry" />
        </mxCell>
        <mxCell id="TvpQG-iox65vNh2mYCZo-79" value="Text" style="text;html=1;strokeColor=none;fillColor=none;align=center;verticalAlign=middle;whiteSpace=wrap;rounded=0;shadow=0;glass=0;sketch=0;fontSize=30;fontColor=#666666;" vertex="1" parent="1">
          <mxGeometry x="3790" y="50" width="60" height="30" as="geometry" />
        </mxCell>
        <mxCell id="TvpQG-iox65vNh2mYCZo-84" value="Text" style="text;html=1;strokeColor=none;fillColor=none;align=center;verticalAlign=middle;whiteSpace=wrap;rounded=0;shadow=0;glass=0;sketch=0;fontSize=30;fontColor=#666666;" vertex="1" parent="1">
          <mxGeometry x="3180" y="-450" width="60" height="30" as="geometry" />
        </mxCell>
        <mxCell id="TvpQG-iox65vNh2mYCZo-85" value="Text" style="text;html=1;strokeColor=none;fillColor=none;align=center;verticalAlign=middle;whiteSpace=wrap;rounded=0;shadow=0;glass=0;sketch=0;fontSize=30;fontColor=#666666;" vertex="1" parent="1">
          <mxGeometry x="3160" y="290" width="60" height="30" as="geometry" />
        </mxCell>
        <mxCell id="TvpQG-iox65vNh2mYCZo-86" value="" style="rounded=1;whiteSpace=wrap;html=1;shadow=0;glass=0;sketch=0;fontSize=30;fontColor=#666666;strokeColor=#141414;strokeWidth=5;" vertex="1" parent="1">
          <mxGeometry x="4700" y="-390" width="980" height="1280" as="geometry" />
        </mxCell>
        <mxCell id="TvpQG-iox65vNh2mYCZo-87" value="" style="verticalLabelPosition=bottom;shadow=0;dashed=0;align=center;html=1;verticalAlign=top;strokeWidth=1;shape=mxgraph.mockup.graphics.simpleIcon;strokeColor=#999999;rounded=0;labelBackgroundColor=none;fontFamily=Verdana;fontSize=14;fontColor=#000000;comic=1;" vertex="1" parent="1">
          <mxGeometry x="4880" y="-200" width="600" height="380" as="geometry" />
        </mxCell>
        <mxCell id="TvpQG-iox65vNh2mYCZo-88" value="&lt;h1&gt;Heading&lt;/h1&gt;&lt;p&gt;Lorem ipsum dolor sit amet, consectetur adipisicing elit, sed do eiusmod tempor incididunt ut labore et dolore magna aliqua.&lt;/p&gt;" style="text;html=1;strokeColor=none;fillColor=none;spacing=5;spacingTop=-20;whiteSpace=wrap;overflow=hidden;rounded=0;shadow=0;glass=0;sketch=0;fontSize=30;fontColor=#666666;" vertex="1" parent="1">
          <mxGeometry x="4260" y="-140" width="190" height="120" as="geometry" />
        </mxCell>
        <mxCell id="TvpQG-iox65vNh2mYCZo-91" value="&lt;h1&gt;Heading&lt;/h1&gt;&lt;p&gt;Lorem ipsum dolor sit amet, consectetur adipisicing elit, sed do eiusmod tempor incididunt ut labore et dolore magna aliqua.&lt;/p&gt;" style="text;html=1;strokeColor=none;fillColor=none;spacing=5;spacingTop=-20;whiteSpace=wrap;overflow=hidden;rounded=0;shadow=0;glass=0;sketch=0;fontSize=30;fontColor=#666666;" vertex="1" parent="1">
          <mxGeometry x="4850" y="-290" width="730" height="1060" as="geometry" />
        </mxCell>
        <mxCell id="TvpQG-iox65vNh2mYCZo-92" value="" style="whiteSpace=wrap;html=1;rounded=0;shadow=0;labelBackgroundColor=none;strokeColor=#000000;strokeWidth=1;fillColor=none;fontFamily=Verdana;fontSize=12;fontColor=#000000;align=center;comic=1;" vertex="1" parent="1">
          <mxGeometry x="5820" y="-1530" width="1920" height="2970" as="geometry" />
        </mxCell>
        <mxCell id="TvpQG-iox65vNh2mYCZo-93" value="&lt;span style=&quot;font-size: 72px;&quot;&gt;景點&lt;/span&gt;" style="text;html=1;align=center;verticalAlign=middle;resizable=0;points=[];autosize=1;strokeColor=none;fillColor=none;" vertex="1" parent="1">
          <mxGeometry x="5870" y="-1610" width="160" height="40" as="geometry" />
        </mxCell>
      </root>
    </mxGraphModel>
  </diagram>
</mxfile>
